<svg version="1" xmlns="http://www.w3.org/2000/svg" width="646.667" height="646.667" viewBox="0 0 485.000000 485.000000"><path d="M343.1 1.6c-16.3 4.3-30.3 18.7-34.2 35.1-.8 3.5-1.2 45.6-1.3 154.8l-.1 150-104 .2c-57.2.1-108.2.3-113.3.3h-9.3l.2 13.6c.4 24.7 4.9 42.6 15.4 62 12.4 22.7 32.6 42.4 54.5 53.1 15.7 7.6 18.9 8.8 34 11.8 9.5 1.8 14.1 2.2 26.5 2 8.3-.2 16.1-.6 17.5-.9 1.4-.3 5-1.1 8-1.7 22.6-4.5 45.1-17 63-34.9 20-20 31.7-43.3 36.6-72.5.4-2.2.8-76 1-164 .1-88 .3-161.8.3-164 .2-8.3 8.7-16.5 16.9-16.5 3.8 0 9.8 2.3 12.5 4.8 4.9 4.4 5.7 8.1 5.7 26v16.8h30V60.4c0-9.5-.5-19.7-1.1-22.6C398.5 21.5 385 6.9 369 2c-6.4-1.9-19.5-2.1-25.9-.4zm-37.2 370.9c1 1.1-3.6 17.1-7.2 24.7-9.3 20.1-24.1 35.9-43.7 46.4-22.7 12.3-53.7 14.6-78.1 5.8-23.3-8.4-42.4-24.8-54.2-46.4-3.4-6.3-8.4-19.7-9.3-25-.3-1.4-.7-3.3-1-4.2-.4-1.5.4-1.7 6.3-2 12.5-.6 186.6.1 187.2.7z"/><path d="M214.6 109.7c-28.6 6-49.4 31.2-49.4 59.9 0 31 20.8 55.9 51.9 61.8 27.3 5.2 55.1-8.7 67.7-33.9 13.9-27.6 4.5-61.6-21.6-78.8-6.4-4.2-14.8-7.9-20.9-9.2-6.2-1.4-21-1.3-27.7.2zm31.2 9.9c17.2 5.7 29.6 18.7 34.8 36.2 6.6 22.3-2.8 46.8-22.7 59.5-9.2 5.8-16.2 7.9-27.4 8.3-12.4.4-16.9-.5-27-5.6-33-16.6-40.1-58.9-14.4-85 15-15.3 36.2-20.3 56.7-13.4z"/><path d="M252.8 189.8c-1 .2-1.8.7-1.8 1.1 0 1.4-8.5 6.8-13.2 8.4-9.5 3.2-19.6 1.2-31-6.1-2.2-1.3-3.2-1.4-4.5-.6-4.7 3-1.7 7.4 8.5 12.6 6.3 3.1 7.3 3.3 17.2 3.3 9.4 0 11.1-.3 16.3-2.7 6-2.8 11.2-6.6 13.5-9.9 2.2-3.2-.9-7.1-5-6.1zM191.9 254c-35.7 11-33.3 61.9 3.3 69.4 23.1 4.8 43.9-11.7 44-34.8.1-7.9-2.4-15.3-7-21.4-4.8-6.3-6.7-7.8-14-11.4-7.8-3.8-17.8-4.5-26.3-1.8zm20.1 8.2c6.4 2 12.4 7.3 16.2 14.3 3.2 5.9 3.2 17.3 0 23.5-5.3 10.2-13.5 15.4-24.8 15.7-5.6.1-8.1-.3-12.1-2.1-10.3-4.8-16.5-14.3-16.5-25.2 0-19.2 18.3-32.2 37.2-26.2z"/><path d="M192.2 270.6c-3.4 1.7-5.8 3.7-6.9 5.7-1.5 3-1.5 3.2.7 4.9 2.1 1.7 2.5 1.7 4.4.3 7.5-5.6 14.8-6.4 21.2-2.4 4.4 2.7 8.4 2 8.4-1.5 0-8.2-17-12.4-27.8-7z"/></svg>